HIERARCHY
ROOT Hips
{
	OFFSET 0.000000 0.000000 0.000000
	CHANNELS 6 Xposition Yposition Zposition Xrotation Yrotation Zrotation
	JOINT LeftUpLeg_virtual
	{
		OFFSET 0.000000 0.000000 0.000000
		CHANNELS 3 Xrotation Yrotation Zrotation
		JOINT LeftUpLeg
		{
			OFFSET 10.205400 -3.823500 0.155100
			CHANNELS 3 Xrotation Yrotation Zrotation
			JOINT LeftLeg
			{
				OFFSET 0.708757 -12.982077 0.567790
				CHANNELS 3 Xrotation Yrotation Zrotation
				JOINT LeftFoot
				{
					OFFSET -0.708756 -10.717838 -2.184338
					CHANNELS 3 Xrotation Yrotation Zrotation
					JOINT LeftToeBase
					{
						OFFSET 0.108149 -7.191104 7.560241
						CHANNELS 3 Xrotation Yrotation Zrotation
						JOINT LeftToe_End
						{
							OFFSET 0.070230 0.081724 4.490308
							CHANNELS 3 Xrotation Yrotation Zrotation
							End Site
							{
								OFFSET 0 0 0
							}
						}
					}
				}
			}
		}
	}
	JOINT RightUpLeg_virtual
	{
		OFFSET 0.000000 0.000000 0.000000
		CHANNELS 3 Xrotation Yrotation Zrotation
		JOINT RightUpLeg
		{
			OFFSET -10.205400 -3.823500 0.005500
			CHANNELS 3 Xrotation Yrotation Zrotation
			JOINT RightLeg
			{
				OFFSET -0.708756 -12.982134 0.610632
				CHANNELS 3 Xrotation Yrotation Zrotation
				JOINT RightFoot
				{
					OFFSET 0.708754 -10.717769 -1.945823
					CHANNELS 3 Xrotation Yrotation Zrotation
					JOINT RightToeBase
					{
						OFFSET -0.108140 -7.191069 7.372968
						CHANNELS 3 Xrotation Yrotation Zrotation
						JOINT RightToe_End
						{
							OFFSET -0.070227 0.081735 4.479403
							CHANNELS 3 Xrotation Yrotation Zrotation
							End Site
							{
								OFFSET 0 0 0
							}
						}
					}
				}
			}
		}
	}
	JOINT Spine_virtual
	{
		OFFSET 0.000000 0.000000 0.000000
		CHANNELS 3 Xrotation Yrotation Zrotation
		JOINT Spine
		{
			OFFSET 0.000000 6.876099 0.125700
			CHANNELS 3 Xrotation Yrotation Zrotation
			JOINT Spine1
			{
				OFFSET 0.000000 5.730043 0.104720
				CHANNELS 3 Xrotation Yrotation Zrotation
				JOINT Spine1_split
				{
					OFFSET 0.000000 5.730043 0.104720
					CHANNELS 3 Xrotation Yrotation Zrotation
					JOINT Spine2
					{
						OFFSET 0.000000 5.730043 0.104720
						CHANNELS 3 Xrotation Yrotation Zrotation
						JOINT Neck_virtual
						{
							OFFSET 0.000000 0.000000 0.000000
							CHANNELS 3 Xrotation Yrotation Zrotation
							JOINT Neck
							{
								OFFSET 0.000000 10.314075 0.188496
								CHANNELS 3 Xrotation Yrotation Zrotation
								JOINT Head
								{
									OFFSET 0.000000 7.643700 -2.377400
									CHANNELS 3 Xrotation Yrotation Zrotation
									JOINT HeadTop_End
									{
										OFFSET 0.000000 43.788605 -13.619600
										CHANNELS 3 Xrotation Yrotation Zrotation
										End Site
										{
											OFFSET 0 0 0
										}
									}
								}
							}
						}
						JOINT LeftShoulder_virtual
						{
							OFFSET 0.000000 0.000000 0.000000
							CHANNELS 3 Xrotation Yrotation Zrotation
							JOINT LeftShoulder
							{
								OFFSET 2.196100 4.412489 0.087492
								CHANNELS 3 Xrotation Yrotation Zrotation
								JOINT LeftShoulder_split
								{
									OFFSET 2.196100 4.412489 0.087492
									CHANNELS 3 Xrotation Yrotation Zrotation
									JOINT LeftArm
									{
										OFFSET 8.771219 -2.981674 -0.026999
										CHANNELS 3 Xrotation Yrotation Zrotation
										JOINT LeftForeArm
										{
											OFFSET 8.512804 0.000000 -0.000000
											CHANNELS 3 Xrotation Yrotation Zrotation
											JOINT LeftHand
											{
												OFFSET 18.484802 0.000000 -0.000000
												CHANNELS 3 Xrotation Yrotation Zrotation
												End Site
												{
													OFFSET 0 0 0
												}
											}
										}
									}
								}
							}
						}
						JOINT RightShoulder_virtual
						{
							OFFSET 0.000000 0.000000 0.000000
							CHANNELS 3 Xrotation Yrotation Zrotation
							JOINT RightShoulder
							{
								OFFSET -2.196100 4.412496 0.070690
								CHANNELS 3 Xrotation Yrotation Zrotation
								JOINT RightShoulder_split
								{
									OFFSET -2.196100 4.412496 0.070690
									CHANNELS 3 Xrotation Yrotation Zrotation
									JOINT RightArm
									{
										OFFSET -8.771282 -2.981682 -0.094208
										CHANNELS 3 Xrotation Yrotation Zrotation
										JOINT RightForeArm
										{
											OFFSET -8.494598 0.000000 0.000000
											CHANNELS 3 Xrotation Yrotation Zrotation
											JOINT RightHand
											{
												OFFSET -18.483803 0.000000 0.000001
												CHANNELS 3 Xrotation Yrotation Zrotation
												End Site
												{
													OFFSET 0 0 0
												}
											}
										}
									}
								}
							}
						}
					}
				}
			}
		}
	}
}
MOTION
Frames: 10
Frame Time: 0.03333333
1.209276 32.634941 -22.986042 0.000000 0.000000 0.000000 173.010536 -62.840076 173.224471 -23.099978 12.440664 25.786865 41.579132 -9.062910 -7.680905 -21.672926 7.290408 -3.696226 5.175449 1.124357 -3.294247 0.000000 0.000000 0.000000 172.065361 -63.555006 171.700109 -6.634937 -0.400866 6.527070 30.893577 3.518964 5.620432 -33.216214 -1.962436 -9.639093 -1.583255 -1.998626 -8.830453 0.000000 0.000000 0.000000 172.874519 -65.457862 171.687392 2.221377 5.976226 1.631931 -2.398203 2.354193 -2.723247 0.133393 -0.541944 0.019070 0.000000 0.000000 0.000000 0.962112 3.373407 -1.950837 -6.198885 16.232607 9.561509 -16.559947 4.841910 1.713988 0.000000 0.000000 0.000000 -1.057163 0.993883 -2.202063 2.936898 3.811239 6.028899 0.781921 -0.067289 1.587539 -11.157533 8.243210 -72.512116 18.245447 -12.657394 1.334305 0.000000 0.000000 0.000000 -3.976560 1.146966 -0.108053 -0.637400 -14.643256 18.342396 -20.763505 -9.368817 -5.495443 16.187630 43.008482 46.625976 12.316009 26.168616 1.823872 0.000000 0.000000 0.000000 
1.101274 32.821140 -23.729622 0.000000 0.000000 0.000000 173.875320 -57.510487 174.943643 -23.324019 7.788857 20.800322 41.496814 -9.087556 -6.036999 -19.401426 7.720885 -5.860401 4.195924 1.318770 -3.957950 0.000000 0.000000 0.000000 172.658071 -59.103416 173.244429 -6.360477 3.169292 6.739763 29.217480 5.863054 4.711889 -31.756022 -1.545077 -12.017410 -3.090550 -2.342587 -6.453488 0.000000 0.000000 0.000000 174.452416 -60.280490 174.412719 2.331204 6.789780 1.930247 -2.050259 2.755993 -2.752942 0.108130 -0.592327 0.016822 0.000000 0.000000 0.000000 1.808859 3.747730 -2.210001 -5.769403 15.773034 9.134872 -17.260446 4.219409 3.004101 0.000000 0.000000 0.000000 -0.390185 1.291946 -2.158836 2.373717 2.516849 4.961210 1.216669 0.285031 1.660447 -8.877072 8.587445 -72.977293 17.897891 -11.947709 0.324071 0.000000 0.000000 0.000000 -3.755338 1.411762 -0.173598 -0.851900 -14.626515 18.347177 -19.644741 -8.785074 -5.481909 15.016967 43.941571 46.518615 12.556542 27.043799 1.351931 0.000000 0.000000 0.000000 
0.887921 33.026421 -24.404762 0.000000 0.000000 0.000000 174.103817 -52.228295 175.979278 -24.560044 3.363366 15.592468 39.762035 -8.966925 -3.690630 -16.152877 7.934725 -9.127757 2.017764 1.514946 -4.413804 0.000000 0.000000 0.000000 172.849780 -55.057052 174.352955 -5.758168 6.149482 7.005673 27.738464 8.084605 3.905587 -30.560940 -1.062850 -14.912980 -4.294333 -2.597196 -4.156796 0.000000 0.000000 0.000000 175.223230 -55.126395 176.311088 2.336806 7.521047 2.096187 -1.624258 3.085050 -2.690712 0.082297 -0.593716 0.024146 0.000000 0.000000 0.000000 2.781897 4.090564 -2.394890 -5.419152 15.580621 8.636542 -17.724614 3.605177 4.287616 0.000000 0.000000 0.000000 0.361829 1.558151 -1.994500 1.769272 1.355098 3.941940 1.276397 0.088335 1.464665 -6.235824 8.536252 -73.414097 16.798604 -10.943652 -1.023134 0.000000 0.000000 0.000000 -3.377818 1.639619 -0.195686 -1.119222 -14.337279 18.208434 -18.213468 -8.407674 -5.022279 13.284409 45.244420 46.718822 12.275827 27.131291 1.090037 0.000000 0.000000 0.000000 
0.600103 33.188972 -25.093052 0.000000 0.000000 0.000000 174.249355 -47.120710 176.791401 -26.732010 -0.211905 10.803639 37.167274 -8.584917 -1.064687 -12.745784 8.001540 -12.890303 -0.288618 1.712037 -4.784155 0.000000 0.000000 0.000000 173.179897 -51.130325 175.397468 -4.820905 8.276395 7.514134 27.040982 10.006231 3.107523 -30.188087 -0.200163 -18.800207 -4.717408 -2.671455 -2.323612 0.000000 0.000000 0.000000 175.741628 -50.000232 177.596434 2.442773 8.209689 2.199259 -1.169028 3.294770 -2.528092 0.047043 -0.582139 0.049593 0.000000 0.000000 0.000000 3.796231 4.360077 -2.465757 -5.114809 15.614784 8.187217 -18.026935 3.000249 5.667633 0.000000 0.000000 0.000000 1.123785 1.778002 -1.710866 1.187945 0.512420 3.130271 1.206379 -0.090185 0.948579 -3.402694 8.554293 -74.191584 15.267845 -10.219283 -2.384347 0.000000 0.000000 0.000000 -2.819469 1.813490 -0.184253 -1.374816 -13.587958 18.108997 -16.699485 -8.167663 -4.451081 11.069616 46.824638 47.434571 11.507991 26.723824 1.067387 0.000000 0.000000 0.000000 
0.223070 33.273270 -25.759235 0.000000 0.000000 0.000000 174.521251 -42.341207 177.482589 -29.756129 -2.552238 7.132969 35.000939 -7.974316 1.511574 -9.501886 7.927245 -16.786542 -1.221568 1.808105 -5.032806 0.000000 0.000000 0.000000 173.730629 -47.106630 176.276377 -3.573920 9.495682 8.050800 27.392535 11.761419 2.393538 -30.645290 1.320538 -23.190625 -5.024233 -2.463425 -1.490417 0.000000 0.000000 0.000000 176.365183 -45.119461 178.449894 2.885924 8.854025 2.339566 -0.693268 3.395392 -2.292554 0.061550 -0.576735 0.044679 0.000000 0.000000 0.000000 4.764459 4.539715 -2.406488 -5.010269 15.828989 7.972454 -18.593754 2.533669 7.016509 0.000000 0.000000 0.000000 1.855976 1.966124 -1.369271 0.641078 0.146617 2.483777 1.309343 -0.467410 0.065987 -0.565361 8.947514 -75.548360 13.738407 -10.406760 -3.401867 0.000000 0.000000 0.000000 -2.121696 1.921741 -0.147787 -1.607939 -12.314905 18.194557 -15.316136 -8.089440 -3.805024 8.737828 48.580574 48.565278 10.351665 26.298033 1.214299 0.000000 0.000000 0.000000 
-0.218529 33.269165 -26.495937 0.000000 0.000000 0.000000 175.147825 -37.993429 178.120460 -33.069075 -3.700074 4.903515 34.007799 -7.207275 3.799859 -6.728636 7.683844 -20.638607 -0.349661 1.708007 -4.893665 0.000000 0.000000 0.000000 174.666488 -42.926486 177.143456 -2.130296 9.840683 8.393447 28.577158 13.779131 1.693411 -30.996344 3.589802 -26.900406 -6.194161 -1.928665 -2.134645 0.000000 0.000000 0.000000 177.381816 -40.680381 179.022291 3.806962 9.388681 2.558591 -0.235344 3.371558 -2.028301 0.116643 -0.702209 0.079371 0.000000 0.000000 0.000000 5.672134 4.624463 -2.209019 -5.206373 16.160335 8.124887 -19.907742 2.132872 8.056768 0.000000 0.000000 0.000000 2.508785 2.110960 -1.043838 0.103321 0.280762 1.915127 1.870130 -0.931062 -0.710974 1.958734 9.779026 -77.538418 12.498423 -11.754986 -3.943972 0.000000 0.000000 0.000000 -1.411040 1.938583 -0.128963 -1.797149 -10.590090 18.514215 -14.307447 -8.326797 -3.316069 6.622610 50.165117 50.100865 8.889814 26.319248 1.479167 0.000000 0.000000 0.000000 
-0.699336 33.226830 -27.357189 0.000000 0.000000 0.000000 176.071704 -34.339476 178.605349 -35.917854 -4.005919 3.954032 34.018696 -6.095989 5.409480 -5.087872 7.370494 -23.803371 0.784613 1.389248 -3.938752 0.000000 0.000000 0.000000 175.790669 -38.904553 177.719555 -0.729552 9.366059 8.405633 29.979538 16.676909 1.089244 -30.783348 6.528053 -28.647724 -8.153023 -1.047484 -4.467305 0.000000 0.000000 0.000000 178.994792 -37.098698 179.487181 5.295086 9.714142 2.774482 0.173931 3.231077 -1.805245 0.175022 -1.029010 0.169198 0.000000 0.000000 0.000000 6.489745 4.616895 -1.895356 -5.716181 16.504681 8.736766 -21.922286 1.910960 8.431340 0.000000 0.000000 0.000000 2.995957 2.195390 -0.829212 -0.485063 0.925546 1.217458 2.947561 -1.531741 -1.282962 3.912071 10.808546 -79.882655 11.786648 -14.121802 -3.997705 0.000000 0.000000 0.000000 -0.807309 1.875745 -0.192870 -1.911109 -8.671474 19.023930 -13.339736 -8.847145 -2.922700 4.788216 51.191868 52.039741 7.233711 26.974405 1.731926 0.000000 0.000000 0.000000 
-1.194618 33.204021 -28.391800 0.000000 0.000000 0.000000 177.139891 -31.328271 178.900099 -37.274152 -3.946953 3.603741 34.304489 -4.262897 6.279965 -4.932153 7.308021 -25.462443 0.868195 0.830090 -2.240740 0.000000 0.000000 0.000000 176.823380 -35.837159 177.808074 0.602642 8.194383 8.079978 31.216649 20.644974 0.751084 -29.910771 9.839255 -28.117894 -10.304454 0.145327 -8.192517 0.000000 0.000000 0.000000 -179.106384 -34.594515 179.758121 7.244197 9.734427 2.912339 0.430869 3.006271 -1.662649 0.241185 -1.463791 0.278395 0.000000 0.000000 0.000000 7.159222 4.518189 -1.508034 -6.543108 16.775860 9.742687 -24.465015 1.797006 7.862285 0.000000 0.000000 0.000000 3.260863 2.227756 -0.785507 -1.074700 1.878739 0.109623 4.179240 -2.490224 -1.281190 5.306233 11.612683 -81.910497 11.549204 -17.154425 -3.656109 0.000000 0.000000 0.000000 -0.413636 1.724556 -0.390178 -2.019663 -6.761809 19.567881 -12.108853 -9.353814 -2.609530 3.434979 51.608165 54.136069 5.536650 28.254092 1.874049 0.000000 0.000000 0.000000 
-1.646992 33.230175 -29.660110 0.000000 0.000000 0.000000 178.155608 -29.390697 179.004300 -37.297938 -3.968092 3.157643 34.665082 -1.500046 6.115806 -5.801439 7.669695 -25.319873 0.391267 0.109450 -0.622378 0.000000 0.000000 0.000000 177.705703 -34.284756 177.695089 1.862960 6.387479 7.651756 31.832752 25.092329 0.649193 -28.599027 13.068829 -25.799981 -11.766473 1.378443 -12.619410 0.000000 0.000000 0.000000 -177.262397 -33.184836 179.723819 9.437554 9.449596 2.837762 0.511642 2.725416 -1.581364 0.254565 -1.911960 0.396458 0.000000 0.000000 0.000000 7.617999 4.347619 -1.051532 -7.488835 16.868310 10.914971 -27.091474 1.632075 6.383393 0.000000 0.000000 0.000000 3.324582 2.217785 -0.887153 -1.541688 2.940545 -1.488182 5.143507 -3.512132 -0.804452 6.264471 11.638640 -82.989490 11.449625 -20.081840 -3.220186 0.000000 0.000000 0.000000 -0.245485 1.502283 -0.689979 -2.116571 -5.081008 19.844355 -10.279954 -9.460820 -2.247989 2.484533 51.395008 56.315350 4.064445 30.004164 1.792804 0.000000 0.000000 0.000000 
-2.036657 33.358665 -31.119358 0.000000 0.000000 0.000000 178.759588 -28.688594 178.740573 -36.829862 -4.394977 2.292363 35.016013 2.331566 4.754751 -6.935466 8.388266 -23.410876 0.467635 -0.656371 0.123520 0.000000 0.000000 0.000000 178.208474 -34.706172 177.304266 3.311207 4.238867 7.546422 31.639414 29.127058 0.915650 -27.921767 15.629913 -22.879793 -11.980749 2.296451 -17.008744 0.000000 0.000000 0.000000 -175.710100 -33.220695 179.366327 11.765331 8.905885 2.494337 0.364272 2.449209 -1.501807 0.250971 -2.195140 0.431795 0.000000 0.000000 0.000000 7.735038 4.127467 -0.547539 -8.526087 16.739520 12.005197 -29.344948 1.244781 4.191177 0.000000 0.000000 0.000000 3.200139 2.200905 -1.038862 -1.769405 4.010015 -3.605460 5.537785 -4.939655 -0.206214 7.056310 10.448715 -82.685546 11.256948 -22.466640 -2.871334 0.000000 0.000000 0.000000 -0.234907 1.256169 -1.020463 -2.193950 -3.802009 19.652305 -7.786556 -8.889951 -1.667611 1.715778 50.776053 58.501629 3.101913 32.086897 1.377717 0.000000 0.000000 0.000000 
